<svg width="18" height="16" viewBox="0 0 18 16" fill="none" xmlns="http://www.w3.org/2000/svg">
<path d="M0.0374431 7.26753C0.274586 5.00486 1.15614 3.63594 2.92949 2.20947C5.17261 0.405097 7.31493 0.318347 10.1596 0.764304C12.6545 1.15543 14.3225 1.71938 15.9437 3.65463C18.3069 6.47572 18.7473 10.0128 16.6667 13.0482C14.382 16.3814 10.3568 16.5604 6.54454 15.2159C2.76025 13.8813 -0.380607 11.2563 0.0374431 7.26753Z" fill="#2344B1"/>
<path d="M12.0109 1.54159C11.8505 1.80732 11.6402 2.08097 11.4632 2.31453C11.2739 2.56428 11.1091 2.78625 10.9839 3.00159C10.7298 3.43843 10.7573 3.62462 10.8714 3.78506C10.9839 3.94292 11.1854 4.04595 11.5782 4.07892C11.7694 4.09496 11.9733 4.09143 12.1914 4.08258C12.3888 4.07457 12.6396 4.05953 12.8432 4.06538L13.0313 5.47945C12.2755 5.70733 11.917 5.86205 11.651 6.0248C11.3696 6.19707 11.1693 6.38636 10.6939 6.79396C9.72627 7.62358 9.1116 8.87968 8.72831 9.59371L7.3682 9.23114C7.37356 9.04494 7.3945 8.66905 7.35505 8.23042C7.31445 7.77919 7.21611 7.35394 7.03708 7.0612C6.87085 6.78971 6.56308 6.5874 6.08756 6.45486C5.62356 6.32555 5.08399 6.28691 4.55933 6.27615C4.18271 6.3253 3.78914 6.33079 3.43232 6.24873L3.61522 4.82237C3.86882 4.82966 4.09542 4.82356 4.47013 4.82897C5.12233 4.72371 5.82485 4.41888 6.20501 4.07519C6.33959 3.95347 6.38554 3.82909 6.38395 3.65404C6.38202 3.44406 6.3072 3.16827 6.15221 2.82074C5.99906 2.47736 5.80096 2.13328 5.599 1.77255C5.41439 1.44279 5.19835 1.05273 5.09331 0.704755L6.31133 0C7.35956 1.10967 8.34927 1.57478 9.04351 1.94047C9.07684 1.93169 9.12658 1.91769 9.19284 1.88886C9.39759 1.79965 9.65289 1.64074 9.91978 1.44752C10.1806 1.25867 10.4269 1.05711 10.6088 0.900273C10.6991 0.82243 10.7719 0.75624 10.8221 0.710728C10.8471 0.688028 10.8669 0.670115 10.8795 0.658469L10.8959 0.642968L12.0109 1.54159Z" fill="#04072A"/>
</svg>
