<svg width="144" height="128" viewBox="0 0 144 128" fill="none" xmlns="http://www.w3.org/2000/svg">
<path d="M0.299545 58.1403C2.19669 40.0389 9.24912 29.0876 23.4359 17.6757C41.3809 3.24079 58.5194 2.54679 81.2767 6.11444C101.236 9.24348 114.58 13.755 127.549 29.237C146.455 51.8058 149.978 80.1027 133.334 104.385C115.056 131.051 82.8546 132.483 52.3563 121.727C22.082 111.051 -3.04486 90.0505 0.299545 58.1403Z" fill="#2344B1"/>
<path d="M96.0868 12.3327C94.8041 14.4585 93.1212 16.6477 91.7053 18.5163C90.1913 20.5143 88.8732 22.29 87.871 24.0127C85.838 27.5074 86.0584 28.997 86.9713 30.2805C87.8709 31.5434 89.4833 32.3676 92.6256 32.6314C94.1549 32.7597 95.7866 32.7315 97.5315 32.6606C99.1102 32.5965 101.117 32.4762 102.746 32.523L104.25 43.8356C98.2036 45.6587 95.3362 46.8964 93.2084 48.1984C90.9571 49.5766 89.3543 51.0909 85.5512 54.3517C77.8101 60.9887 72.8928 71.0374 69.8264 76.7497L58.9456 73.8491C58.9885 72.3595 59.156 69.3524 58.8404 65.8434C58.5156 62.2335 57.7289 58.8315 56.2966 56.4896C54.9668 54.3177 52.5046 52.6992 48.7005 51.6389C44.9885 50.6044 40.6719 50.2953 36.4746 50.2092C33.4617 50.6024 30.3131 50.6463 27.4585 49.9899L28.9218 38.5789C30.9506 38.6373 32.7634 38.5885 35.761 38.6318C40.9786 37.7896 46.5988 35.351 49.6401 32.6015C50.7167 31.6278 51.0843 30.6327 51.0716 29.2323C51.0561 27.5525 50.4576 25.3462 49.2177 22.566C47.9925 19.8189 46.4077 17.0662 44.792 14.1804C43.3151 11.5423 41.5868 8.42184 40.7465 5.63804L50.4906 0C58.8765 8.87737 66.7942 12.5982 72.3481 15.5238C72.6147 15.4536 73.0126 15.3415 73.5427 15.1108C75.1807 14.3972 77.2231 13.1259 79.3583 11.5802C81.4451 10.0693 83.4155 8.45692 84.8706 7.20218C85.5927 6.57944 86.1753 6.04992 86.5765 5.68582C86.7766 5.50422 86.9355 5.36092 87.036 5.26775L87.1675 5.14374L96.0868 12.3327Z" fill="#04072A"/>
</svg>
