<svg width="5" height="16" viewBox="0 0 5 16" fill="none" xmlns="http://www.w3.org/2000/svg">
<path d="M1.87433 0.0156794C2.43231 -0.031821 3.10587 0.0329441 3.28644 0.151422C3.41131 0.233552 3.45327 0.5062 3.3714 0.703179C3.33737 0.784936 3.33568 0.820553 3.36261 0.870172C3.38126 0.905186 3.39654 1.02008 3.39679 1.12603C3.39718 1.28764 3.3826 1.34848 3.305 1.49712C3.22186 1.65634 3.21125 1.70058 3.21125 1.91998C3.21125 2.22058 3.27619 2.73121 3.37238 3.18853C3.44413 3.5297 3.71071 4.29094 4.03839 5.0938C4.20856 5.51073 4.27877 5.75764 4.26789 5.9063L4.24835 6.02154C4.24358 6.08282 4.25521 6.15794 4.28644 6.28033C4.4579 6.95232 4.5377 7.84065 4.48175 8.45123C4.46202 8.66659 4.44858 8.90838 4.45148 8.98834C4.47041 9.51023 4.45921 9.62588 4.28937 10.6309C3.99615 12.366 3.99099 12.8405 4.25812 13.6661C4.46643 14.3098 4.55177 15.0417 4.44757 15.293C4.32554 15.5862 3.89221 15.814 3.2425 15.9268C2.85168 15.9946 2.03232 16.0219 1.63312 15.9805C0.898582 15.9043 0.339206 15.6971 0.131167 15.4239C-0.0739042 15.154 -0.0302754 14.5217 0.257144 13.6114C0.411201 13.1234 0.442703 12.8705 0.422183 12.2754C0.407512 11.8503 0.377491 11.6162 0.213198 10.6309C0.0540859 9.67666 0.0251146 9.44858 0.0393702 9.27935C0.0488245 9.16764 0.0584314 9.04326 0.0608546 9.00298C0.0632501 8.96301 0.0478806 8.773 0.0266749 8.58111C-0.0394264 7.98305 0.0198979 7.13964 0.176089 6.45806C0.209638 6.31163 0.238318 6.07452 0.241519 5.91998C0.24648 5.68054 0.261239 5.60876 0.349917 5.38189C0.994861 3.73196 1.04912 3.57436 1.15558 3.04107C1.24594 2.58849 1.31639 1.90824 1.29035 1.74517C1.28149 1.69041 1.23291 1.56005 1.18195 1.45611C1.09523 1.27929 1.08993 1.25402 1.10968 1.07037C1.13253 0.857919 1.13272 0.835931 1.10871 0.50982C1.0945 0.316723 1.1002 0.282384 1.1546 0.212945C1.23794 0.106591 1.43049 0.0534803 1.87433 0.0156794ZM2.51691 10.5792C2.43444 10.5792 2.31696 10.605 2.25617 10.6358C2.13671 10.6965 2.01673 10.9025 2.01691 11.0479C2.01714 11.186 2.16074 11.3867 2.30207 11.4473C2.46592 11.5173 2.54533 11.5172 2.68292 11.4473C3.12391 11.2227 3.00098 10.5796 2.51691 10.5792ZM2.6966 9.38482C2.69613 8.62358 1.76468 8.26383 1.24054 8.82232C0.908428 9.17637 0.920573 9.61905 1.27277 9.96685C1.38284 10.0755 1.51309 10.1608 1.60773 10.1866C2.15984 10.3368 2.69682 9.94144 2.6966 9.38482ZM2.6839 7.68853C2.3616 7.68865 2.24461 8.18776 2.53937 8.30474C2.66266 8.35356 2.7134 8.35058 2.8382 8.28716C3.12263 8.14234 3.00575 7.68853 2.6839 7.68853ZM2.46417 7.04595C2.37232 6.98681 2.35063 6.98638 2.25812 7.03716C2.12414 7.11073 2.10212 7.27074 2.21125 7.37798C2.30781 7.47281 2.36332 7.47694 2.47882 7.39752C2.60376 7.31151 2.5965 7.13135 2.46417 7.04595Z" fill="#FEE440"/>
</svg>
