<svg width="36" height="128" viewBox="0 0 36 128" fill="none" xmlns="http://www.w3.org/2000/svg">
<path d="M14.9965 0.125435C19.4608 -0.254567 24.85 0.263551 26.2947 1.21137C27.2938 1.86841 27.6295 4.04958 26.9745 5.62541C26.7022 6.27946 26.6887 6.56439 26.9042 6.96134C27.0534 7.24145 27.1756 8.16063 27.1776 9.00821C27.1807 10.3011 27.0641 10.7878 26.4432 11.9769C25.778 13.2506 25.6932 13.6046 25.6931 15.3597C25.6931 17.7646 26.2127 21.8496 26.9823 25.5081C27.5564 28.2374 29.6893 34.3274 32.3111 40.7503C33.6726 44.0856 34.2344 46.0609 34.1472 47.2502L33.991 48.1721C33.9527 48.6624 34.0458 49.2633 34.2957 50.2424C35.6676 55.6183 36.306 62.7249 35.8584 67.6095C35.7005 69.3324 35.593 71.2667 35.6162 71.9064C35.7676 76.0815 35.678 77.0067 34.3191 85.0469C31.973 98.9273 31.9318 102.724 34.0691 109.328C35.7358 114.478 36.4186 120.333 35.5849 122.344C34.6085 124.689 31.1415 126.512 25.9431 127.414C22.8162 127.956 16.2606 128.175 13.0666 127.844C7.18953 127.234 2.71398 125.576 1.04946 123.391C-0.591306 121.231 -0.242233 116.173 2.0574 108.891C3.29001 104.987 3.54206 102.964 3.37787 98.2031C3.26049 94.802 3.0203 92.9293 1.70579 85.0469C0.43274 77.413 0.200941 75.5883 0.315 74.2345C0.390643 73.3408 0.467508 72.3457 0.486896 72.0236C0.506063 71.7037 0.383091 70.1837 0.213425 68.6486C-0.315449 63.8641 0.159203 57.1169 1.40888 51.6643C1.67731 50.4928 1.90678 48.5959 1.93238 47.3596C1.97208 45.4441 2.09016 44.8699 2.79968 43.0549C7.95986 29.8556 8.394 28.5948 9.24577 24.3285C9.96872 20.7078 10.5324 15.2658 10.324 13.9613C10.2532 13.5232 9.86449 12.4804 9.45674 11.6488C8.76294 10.2343 8.72051 10.0321 8.87854 8.5629C9.06136 6.86332 9.06285 6.68742 8.87073 4.07854C8.75704 2.53377 8.80271 2.25906 9.23796 1.70355C9.90475 0.852723 11.4453 0.427841 14.9965 0.125435ZM20.1377 84.6329C19.4779 84.6329 18.538 84.8395 18.0515 85.086C17.0958 85.5716 16.1358 87.2199 16.1372 88.3829C16.1391 89.4874 17.288 91.0933 18.4188 91.5782C19.7298 92.1383 20.3651 92.1376 21.466 91.5782C24.9943 89.7812 24.0108 84.6362 20.1377 84.6329ZM21.5754 75.0782C21.5716 68.9884 14.1192 66.1103 9.92554 70.5783C7.26831 73.4107 7.36548 76.9521 10.1834 79.7345C11.0641 80.6036 12.1062 81.2861 12.8634 81.4923C17.2808 82.6941 21.5772 79.5311 21.5754 75.0782ZM21.4738 61.508C18.8951 61.5089 17.959 65.5018 20.3174 66.4376C21.3039 66.8282 21.7099 66.8044 22.7083 66.297C24.9841 65.1385 24.0489 61.508 21.4738 61.508ZM19.7158 56.3674C18.9809 55.8942 18.8073 55.8908 18.0672 56.2971C16.9952 56.8856 16.819 58.1657 17.6921 59.0236C18.4647 59.7822 18.9088 59.8153 19.833 59.1799C20.8326 58.4918 20.7745 57.0505 19.7158 56.3674Z" fill="#FEE440"/>
</svg>
