<svg width="128" height="129" viewBox="0 0 128 129" fill="none" xmlns="http://www.w3.org/2000/svg">
<path d="M127.998 24.9706L0 101.586V108.67L72.418 128.01L127.998 32.0507V24.9706Z" fill="#4B250A"/>
<path d="M55.5813 5.6245L0.000854492 101.586L72.4196 120.928L128 24.967L55.5813 5.6245Z" fill="#683410"/>
<path d="M75.0346 79.8574L51.1645 73.4614L38.5456 95.3181L62.4157 101.714L75.0346 79.8574Z" fill="#683410"/>
<path fill-rule="evenodd" clip-rule="evenodd" d="M75.0343 79.8584L62.4152 101.715L38.5447 95.3194L37.4085 106.77L67.6559 114.874L83.6459 87.1782L75.0343 79.8584Z" fill="#4B250A"/>
<path d="M40.0464 70.4823L16.1763 64.0863L3.55736 85.943L27.4275 92.339L40.0464 70.4823Z" fill="#683410" stroke="#683410" stroke-width="0.0222987" stroke-linecap="round"/>
<path fill-rule="evenodd" clip-rule="evenodd" d="M40.0468 70.482L27.4276 92.339L3.55711 85.943L2.42099 97.3934L32.6683 105.498L48.6583 77.8018L40.0468 70.482Z" fill="#4B250A"/>
<path d="M93.5312 47.8203L69.661 41.4243L57.0421 63.281L80.9123 69.677L93.5312 47.8203Z" fill="#683410"/>
<path fill-rule="evenodd" clip-rule="evenodd" d="M93.5309 47.8197L80.9118 69.6767L57.0412 63.2807L55.9052 74.7311L86.1525 82.8357L102.142 55.1395L93.5309 47.8197Z" fill="#4B250A"/>
<path d="M58.5428 38.4452L34.6726 32.0492L22.0537 53.9059L45.9239 60.3019L58.5428 38.4452Z" fill="#683410" stroke="#683410" stroke-width="0.0222987" stroke-linecap="round"/>
<path fill-rule="evenodd" clip-rule="evenodd" d="M58.5429 38.4455L45.9238 60.3025L22.0533 53.9065L20.9172 65.3569L51.1645 73.4615L67.1545 45.7653L58.5429 38.4455Z" fill="#4B250A"/>
<path d="M112.027 15.7836L88.1573 9.38763L75.5384 31.2443L99.4085 37.6403L112.027 15.7836Z" fill="#683410" stroke="#683410" stroke-width="0.0222987" stroke-linecap="round"/>
<path fill-rule="evenodd" clip-rule="evenodd" d="M112.027 15.7837L99.4081 37.6407L75.5376 31.2446L74.4015 42.6951L104.649 50.7996L120.639 23.1034L112.027 15.7837Z" fill="#4B250A"/>
<path d="M77.0391 6.40853L53.169 0.0125413L40.5501 21.8692L64.4202 28.2652L77.0391 6.40853Z" fill="#683410" stroke="#683410" stroke-width="0.0222987" stroke-linecap="round"/>
<path fill-rule="evenodd" clip-rule="evenodd" d="M77.0395 6.40865L64.4204 28.2656L40.5498 21.8696L39.4137 33.32L69.6611 41.4246L85.651 13.7284L77.0395 6.40865Z" fill="#4B250A"/>
</svg>
