<svg width="16" height="17" viewBox="0 0 16 17" fill="none" xmlns="http://www.w3.org/2000/svg">
<path d="M15.9997 3.1323L0 12.7092V13.5947L9.05225 16.0122L15.9997 4.01732V3.1323Z" fill="#4B250A"/>
<path d="M6.94766 0.714035L0.000106812 12.7092L9.05245 15.127L16 3.13185L6.94766 0.714035Z" fill="#683410"/>
<path d="M9.37933 9.99315L6.39556 9.19365L4.8182 11.9257L7.80197 12.7252L9.37933 9.99315Z" fill="#683410"/>
<path fill-rule="evenodd" clip-rule="evenodd" d="M9.37929 9.99328L7.8019 12.7254L4.81808 11.9259L4.67607 13.3572L8.45699 14.3703L10.4557 10.9082L9.37929 9.99328Z" fill="#4B250A"/>
<path d="M5.0058 8.82126L2.02203 8.02176L0.44467 10.7538L3.42844 11.5533L5.0058 8.82126Z" fill="#683410" stroke="#683410" stroke-width="0.0222987" stroke-linecap="round"/>
<path fill-rule="evenodd" clip-rule="evenodd" d="M5.00584 8.82123L3.42846 11.5534L0.444638 10.7538L0.302623 12.1852L4.08354 13.1982L6.08229 9.7362L5.00584 8.82123Z" fill="#4B250A"/>
<path d="M11.6914 5.98851L8.70763 5.18901L7.13026 7.9211L10.114 8.7206L11.6914 5.98851Z" fill="#683410"/>
<path fill-rule="evenodd" clip-rule="evenodd" d="M11.6914 5.98844L10.114 8.72056L7.13016 7.92106L6.98814 9.35236L10.7691 10.3654L12.7678 6.90341L11.6914 5.98844Z" fill="#4B250A"/>
<path d="M7.31785 4.81662L4.33408 4.01712L2.75672 6.74921L5.74049 7.5487L7.31785 4.81662Z" fill="#683410" stroke="#683410" stroke-width="0.0222987" stroke-linecap="round"/>
<path fill-rule="evenodd" clip-rule="evenodd" d="M7.31787 4.81666L5.74048 7.54879L2.75666 6.74928L2.61465 8.18059L6.39556 9.19366L8.39431 5.73163L7.31787 4.81666Z" fill="#4B250A"/>
<path d="M14.0034 1.98393L11.0197 1.18443L9.4423 3.91651L12.4261 4.71601L14.0034 1.98393Z" fill="#683410" stroke="#683410" stroke-width="0.0222987" stroke-linecap="round"/>
<path fill-rule="evenodd" clip-rule="evenodd" d="M14.0034 1.98393L12.426 4.71606L9.44219 3.91655L9.30018 5.34786L13.0811 6.36092L15.0798 2.8989L14.0034 1.98393Z" fill="#4B250A"/>
<path d="M9.62989 0.812039L6.64612 0.0125408L5.06876 2.74463L8.05253 3.54412L9.62989 0.812039Z" fill="#683410" stroke="#683410" stroke-width="0.0222987" stroke-linecap="round"/>
<path fill-rule="evenodd" clip-rule="evenodd" d="M9.62994 0.812054L8.05255 3.54418L5.06873 2.74467L4.92672 4.17598L8.70764 5.18905L10.7064 1.72702L9.62994 0.812054Z" fill="#4B250A"/>
</svg>
