<svg width="128" height="128" viewBox="0 0 128 128" fill="none" xmlns="http://www.w3.org/2000/svg">
<rect width="128" height="128" rx="32" fill="#9B5DE5"/>
<path d="M70.9035 8.38668C74.8082 8.73756 79.3734 10.0029 80.4743 11.0391C81.2354 11.7571 81.1932 13.6876 80.3894 14.946C80.0554 15.4682 80.0004 15.7117 80.1258 16.0865C80.2118 16.3506 80.1775 17.1612 80.0504 17.8919C79.8566 19.0064 79.6822 19.4081 78.9665 20.3384C78.1998 21.3349 78.0729 21.627 77.8061 23.1395C77.4407 25.2117 77.2678 28.8107 77.3751 32.0803C77.4551 34.5194 78.3677 40.0912 79.651 46.0242C80.3174 49.1052 80.5014 50.8926 80.2456 51.9043L79.9709 52.6749C79.8634 53.0915 79.8523 53.6235 79.9189 54.5052C80.2842 59.3461 79.7546 65.5669 78.6267 69.708C78.2289 71.1686 77.8423 72.8191 77.7651 73.3738C77.2612 76.9946 77.0434 77.7782 74.6508 84.5001C70.5202 96.1044 69.9078 99.3696 70.746 105.385C71.3997 110.076 71.0984 115.226 70.0746 116.831C68.8768 118.704 65.6123 119.748 60.9958 119.735C58.2189 119.727 52.5367 118.92 49.8347 118.149C44.8631 116.731 41.2583 114.622 40.1561 112.486C39.0703 110.376 40.1397 106.07 43.2278 100.144C44.8831 96.9678 45.4077 95.2629 45.9895 91.1356C46.4052 88.1869 46.4827 86.5368 46.5477 79.5447C46.6106 72.773 46.6881 71.1655 46.9921 70.0162C47.1931 69.2576 47.4105 68.4118 47.4761 68.1372C47.5413 67.8645 47.6662 66.536 47.7533 65.1874C48.0245 60.9842 49.4587 55.2422 51.3641 50.7335C51.7734 49.7648 52.2593 48.1652 52.4692 47.1037C52.7945 45.4592 52.9835 44.9823 53.8706 43.5261C60.3227 32.9362 60.8884 31.9157 62.2706 28.3688C63.4437 25.3588 64.7563 20.755 64.775 19.5992C64.7805 19.211 64.604 18.2532 64.379 17.4747C63.9961 16.1504 63.9902 15.9697 64.3496 14.7277C64.7654 13.291 64.7934 13.1396 65.0243 10.8623C65.161 9.51393 65.2421 9.28415 65.7016 8.8716C66.4054 8.23975 67.7975 8.1077 70.9035 8.38668ZM62.4935 81.9885C61.9249 81.8882 61.0836 81.9234 60.627 82.062C59.7296 82.3352 58.652 83.6097 58.4765 84.612C58.3102 85.5641 59.0563 87.1225 59.957 87.7121C61.0016 88.394 61.5492 88.4899 62.5828 88.1751C65.8962 87.1628 65.8305 82.5799 62.4935 81.9885ZM65.1841 73.9736C66.1062 68.7254 60.1217 65.113 55.8291 68.3259C53.109 70.3628 52.6546 73.4293 54.6601 76.255C55.2869 77.1378 56.0812 77.8842 56.7024 78.1769C60.3262 79.8838 64.5091 77.811 65.1841 73.9736ZM67.1585 62.2646C64.9363 61.8736 63.5229 65.1721 65.413 66.3368C66.2037 66.8232 66.5571 66.8644 67.4946 66.579C69.6317 65.9264 69.3775 62.6559 67.1585 62.2646ZM66.4247 57.5678C65.8632 57.0484 65.7142 57.0191 65.0147 57.2567C64.0015 57.601 63.6552 58.6773 64.2772 59.5492C64.8278 60.3203 65.2054 60.4163 66.0983 60.0092C67.0643 59.5682 67.2331 58.3174 66.4247 57.5678Z" fill="#FEE440"/>
</svg>
