<svg width="104" height="128" viewBox="0 0 104 128" fill="none" xmlns="http://www.w3.org/2000/svg">
<path fill-rule="evenodd" clip-rule="evenodd" d="M59.6892 15.7848C53.4892 14.3339 47.9871 12.5068 41.9512 12.4654C36.0412 12.6558 29.4717 14.4002 23.4246 17.6605C17.2518 20.6891 11.2429 25.1272 8.56664 30.1653C5.89034 35.2035 6.08143 41.0924 6.56242 48.6227C7.15015 55.7959 8.02777 64.6103 10.6593 72.7787C12.9324 80.8408 16.9594 88.2569 21.1807 94.3697C25.5279 100.714 29.9628 106.113 34.2718 111.28C38.2223 116.34 42.2987 121.632 46.0661 124.694C50.0661 127.631 53.757 128.337 57.4098 127.866C61.0625 127.395 64.3186 125.639 70.1443 119.202C75.6115 112.66 83.5225 101.204 89.8436 91.8039C95.9321 82.5292 100.663 75.1847 102.779 67.4528C104.769 59.4892 104.036 51.4954 102.644 45.0556C101.252 38.6158 98.9674 33.8554 94.9292 29.741C91.0168 25.8583 85.709 22.728 79.3642 20.4565C73.1451 18.4167 66.1217 17.1102 59.6892 15.7848Z" fill="#FB3825"/>
<path fill-rule="evenodd" clip-rule="evenodd" d="M53.7297 10.2073C51.6213 10.5219 49.2174 11.7399 46.2462 11.3902C43.2751 11.0404 39.9004 9.32986 35.7829 7.53184C31.8292 5.94072 27.3403 4.09899 24.7406 3.79296C22.0969 3.85701 21.7577 5.13041 23.1876 7.36254C24.6176 9.59468 28.0683 12.2523 30.864 14.0823C33.8673 15.7492 36.0518 16.3816 34.7738 16.0435C33.4959 15.7055 28.5479 14.5602 23.9712 13.4586C19.6022 12.1938 15.5169 11.7129 12.4697 10.4161C9.3787 9.48943 7.32583 7.74682 7.44572 8.32379C7.77324 8.73758 10.4811 11.3078 10.3934 12.0479C9.93426 12.7443 7.05085 11.6545 4.28733 11.1415C1.56768 10.2585 -0.616808 9.62615 0.158118 11.0307C0.933045 12.4353 4.50363 15.6698 8.78487 17.6748C12.9023 19.4728 17.3591 19.9974 21.4883 20.1082C25.8251 20.0559 29.4631 19.546 29.5391 20.4931C29.4513 21.2332 25.4303 23.3865 22.8188 24.7677C19.9996 26.312 18.1748 27.4106 19.7481 26.8453C21.4852 26.4869 26.6205 24.4647 29.4279 24.6076C32.0276 24.9136 32.2995 27.3847 34.484 28.017C36.4609 28.8126 40.1866 27.5626 43.3771 26.062C46.7752 24.3982 49.4745 22.2769 52.4456 22.6266C55.5806 23.1833 58.9435 26.581 61.356 30.0545C63.7686 33.528 65.2307 37.0773 65.6898 36.3809C66.3127 35.8913 65.7689 30.9492 64.3068 27.4C63.0085 24.0576 60.6281 21.9012 62.0259 22.8162C63.4237 23.7313 68.2284 27.674 72.0943 30.0052C75.7527 32.4997 78.4723 33.3827 78.3203 31.4886C78.332 29.8014 75.4721 25.3371 73.0157 22.2337C70.3955 18.9234 67.5999 17.0933 69.7405 18.0958C71.5097 19.0545 78.0076 23.0089 83.6984 24.2417C89.1816 25.6376 93.8577 24.3118 97.7471 23.2687C101.473 22.0187 104.04 21.0076 103.134 20.7133C102.064 20.2121 97.1477 20.3839 93.1062 19.5329C88.6934 18.6382 84.7396 17.0471 84.6636 16.1C84.38 15.3162 87.7664 15.3396 90.8692 14.5791C93.972 13.8186 96.5835 12.4375 94.7704 11.8488C92.7935 11.0532 86.392 11.0502 81.5961 11.799C76.6363 12.3408 73.6973 13.3082 74.5717 12.2854C75.0747 11.2189 79.7626 8.20598 82.1782 5.3008C84.5938 2.39563 84.6932 -0.03171 83.3714 0.00031328C81.6782 -0.0113816 78.6076 2.06621 75.3732 3.93691C72.1388 5.8076 68.7845 7.10133 65.8455 8.0687C63.0702 9.24297 61.0816 10.1346 59.3445 10.493C57.4437 10.6445 55.8382 9.89262 53.7297 10.2073Z" fill="#83D81B"/>
</svg>
