<svg width="13" height="16" viewBox="0 0 13 16" fill="none" xmlns="http://www.w3.org/2000/svg">
<path fill-rule="evenodd" clip-rule="evenodd" d="M7.46114 1.97309C6.68616 1.79173 5.99838 1.56335 5.2439 1.55818C4.50515 1.58198 3.68396 1.80003 2.92808 2.20756C2.15647 2.58613 1.40537 3.1409 1.07083 3.77066C0.736293 4.40043 0.760178 5.13656 0.820302 6.07784C0.893768 6.97448 1.00347 8.07629 1.33241 9.09734C1.61655 10.1051 2.11992 11.0321 2.64759 11.7962C3.19099 12.5893 3.74535 13.2641 4.28397 13.91C4.77779 14.5425 5.28734 15.204 5.75826 15.5868C6.25826 15.9539 6.71963 16.0422 7.17622 15.9832C7.63282 15.9243 8.03983 15.7049 8.76803 14.9003C9.45144 14.0824 10.4403 12.6505 11.2304 11.4755C11.9915 10.3161 12.5829 9.39808 12.8474 8.4316C13.0961 7.43615 13.0045 6.43693 12.8305 5.63195C12.6565 4.82698 12.3709 4.23192 11.8661 3.71762C11.3771 3.23229 10.7136 2.84101 9.92052 2.55706C9.14314 2.30209 8.26521 2.13878 7.46114 1.97309Z" fill="#FB3825"/>
<path fill-rule="evenodd" clip-rule="evenodd" d="M6.71622 1.27591C6.45266 1.31524 6.15217 1.46749 5.78078 1.42377C5.40939 1.38005 4.98755 1.16623 4.47286 0.94148C3.97865 0.74259 3.41754 0.512373 3.09257 0.47412C2.76212 0.482126 2.71971 0.641301 2.89846 0.920318C3.0772 1.19933 3.50854 1.53154 3.858 1.76029C4.23341 1.96865 4.50647 2.0477 4.34673 2.00544C4.18698 1.96319 3.56848 1.82002 2.9964 1.68232C2.45028 1.52423 1.93961 1.46412 1.55872 1.30202C1.17234 1.18618 0.915729 0.968353 0.930715 1.04047C0.971655 1.0922 1.31014 1.41347 1.29917 1.50599C1.24178 1.59304 0.881357 1.45681 0.535916 1.39269C0.195961 1.28232 -0.077101 1.20327 0.0197648 1.37884C0.116631 1.55441 0.562954 1.95873 1.09811 2.20935C1.61279 2.4341 2.16988 2.49967 2.68604 2.51353C3.22814 2.50698 3.68288 2.44325 3.69238 2.56163C3.68142 2.65415 3.17878 2.92332 2.85235 3.09596C2.49995 3.28901 2.27185 3.42632 2.46852 3.35566C2.68565 3.31086 3.32756 3.05809 3.67848 3.07595C4.00345 3.1142 4.03744 3.42308 4.3105 3.50213C4.55761 3.60158 5.02332 3.44532 5.42214 3.25775C5.84691 3.04977 6.18431 2.78461 6.55571 2.82833C6.94757 2.89791 7.36794 3.32263 7.66951 3.75682C7.97107 4.19101 8.15383 4.63466 8.21123 4.54761C8.28909 4.48642 8.22111 3.86865 8.03835 3.425C7.87606 3.0072 7.57851 2.73765 7.75324 2.85203C7.92797 2.96641 8.52855 3.45925 9.01179 3.75066C9.46908 4.06246 9.80904 4.17284 9.79004 3.93607C9.7915 3.72518 9.43401 3.16714 9.12696 2.77921C8.79944 2.36542 8.44998 2.13667 8.71756 2.26197C8.93872 2.38181 9.75095 2.87612 10.4623 3.03021C11.1477 3.2047 11.7322 3.03898 12.2184 2.90859C12.6841 2.75234 13.0051 2.62595 12.8917 2.58916C12.7579 2.52651 12.1435 2.54798 11.6383 2.44161C11.0867 2.32978 10.5925 2.13089 10.583 2.01251C10.5475 1.91452 10.9708 1.91745 11.3586 1.82239C11.7465 1.72733 12.0729 1.55468 11.8463 1.4811C11.5992 1.38165 10.799 1.38127 10.1995 1.47487C9.57954 1.5426 9.21216 1.66353 9.32146 1.53568C9.38434 1.40237 9.97032 1.02575 10.2723 0.662601C10.5742 0.299453 10.5867 -0.00396375 10.4214 3.916e-05C10.2098 -0.0014227 9.82595 0.258276 9.42165 0.492113C9.01735 0.725951 8.59806 0.887667 8.23068 1.00859C7.88378 1.15537 7.6352 1.26683 7.41807 1.31162C7.18046 1.33056 6.97978 1.23658 6.71622 1.27591Z" fill="#83D81B"/>
</svg>
